<?xml version="1.0" standalone="no"?>
<!DOCTYPE svg PUBLIC "-//W3C//DTD SVG 20010904//EN"
 "http://www.w3.org/TR/2001/REC-SVG-20010904/DTD/svg10.dtd">
<svg version="1.0" xmlns="http://www.w3.org/2000/svg"
 width="160.000000pt" height="160.000000pt" viewBox="0 0 160.000000 160.000000"
 preserveAspectRatio="xMidYMid meet">
<metadata>
Created by potrace 1.14, written by Peter Selinger 2001-2017
</metadata>
<g transform="translate(0.000000,160.000000) scale(0.100000,-0.100000)"
fill="#000000" stroke="none">
<path d="M300 1350 c-71 -20 -142 -72 -176 -130 -44 -73 -48 -102 -50 -405 -1
-159 -2 -293 -3 -297 0 -4 -17 -12 -35 -19 -42 -15 -37 -29 10 -29 24 0 36 -5
40 -17 31 -99 92 -167 175 -198 50 -19 79 -20 434 -20 429 0 439 1 521 77 62
57 87 123 88 231 l1 89 90 54 c50 30 93 54 96 54 4 0 1 -17 -6 -37 -16 -46 -6
-77 27 -81 35 -4 44 11 69 120 17 76 20 100 10 112 -10 12 -125 45 -207 60
-27 5 -43 -5 -49 -32 -5 -27 13 -41 71 -56 l47 -12 -94 -56 c-52 -31 -98 -53
-104 -49 -5 4 -17 7 -25 6 -8 -1 -23 -3 -32 -3 -35 -4 -53 -51 -53 -137 -1
-96 -15 -135 -58 -160 -30 -18 -56 -20 -382 -20 -198 -1 -363 3 -380 8 -42 14
-79 48 -63 59 7 4 21 8 31 8 10 0 39 10 65 21 26 12 72 32 102 46 30 14 136
61 235 105 176 78 211 94 345 156 36 16 86 39 111 51 59 26 105 65 126 104 15
29 14 32 -6 49 -16 12 -36 16 -69 14 -44 -2 -98 -24 -401 -163 l-74 -34 -86
26 c-47 14 -93 27 -101 29 -57 15 -161 46 -168 50 -5 3 -23 8 -41 11 -19 3
-48 12 -65 19 -31 13 -32 16 -31 68 3 138 56 180 230 180 109 1 139 11 155 53
12 31 -5 82 -31 96 -21 11 -249 10 -289 -1z m28 -593 l83 -83 -83 -39 c-46
-22 -85 -37 -88 -35 -6 7 -7 240 0 240 3 0 43 -37 88 -83z"/>
<path d="M580 1041 c-9 -3 -14 -17 -13 -31 1 -14 3 -47 4 -73 1 -26 7 -51 13
-55 12 -7 116 -42 128 -42 10 0 1 21 -51 117 -46 85 -55 95 -81 84z"/>
</g>
</svg>
